PathFileType	4	(X/Y/Z)	D:\TRACE\spotREDO_2-26-24\spot_Both_Motion_3_5-platform.trc
DataRate	CameraRate	NumFrames	NumMarkers	Units	OrigDataRate	OrigDataStartFrame	OrigNumFrames
100.00	100.00	      24	5	mm	100.00	5251	      7000
Frame#	Time	Left_Front			Right_Front			Left_Aft			Right_Aft			Post			
		X1	Y1	Z1	X2	Y2	Z2	X3	Y3	Z3	X4	Y4	Z4	X5	Y5	Z5	

5251	52.500	-716.42993	-11.28648	-577.74512	698.08777	-1.50841	-492.80249	-788.27637	11.76576	640.75720	781.04584	18.39519	646.20209	-22.29011	609.93201	-991.56873	
5252	52.510	-716.55542	-10.90579	-577.57440	698.18414	-1.42545	-492.73898	-788.12134	11.28296	640.79938	781.07782	18.35948	646.17505	-21.94209	610.25568	-991.42505	
5253	52.520	-716.50214	-10.65601	-577.46777	698.49951	-1.44782	-492.60681	-788.09882	11.10507	640.81647	781.04523	18.29318	646.22504	-21.76312	610.47119	-991.33612	
5254	52.530	-716.40112	-10.54374	-577.41766	698.53552	-1.38094	-492.51773	-788.13068	10.93656	640.88416	781.09003	18.13654	646.28772	-21.47870	610.53595	-991.00629	
5255	52.540	-716.30853	-10.47338	-577.35461	698.50934	-1.31779	-492.53146	-788.09558	10.70961	640.93579	781.15344	17.83899	646.32269	-21.76896	610.82031	-990.86798	
5256	52.550	-716.23914	-10.33870	-577.31030	698.27979	-1.05851	-492.51596	-788.06848	10.49552	641.05890	781.21161	17.67327	646.50336	-21.96642	611.02130	-990.76385	
5257	52.560	-716.09045	-10.19907	-577.26703	698.40405	-0.88209	-492.37857	-787.95880	10.40568	641.07172	781.36548	17.48448	646.45117	-21.90281	611.30316	-990.62646	
5258	52.570	-716.01178	-10.01120	-577.27545	698.75891	-0.65560	-492.28549	-787.91467	10.31081	641.19012	781.43970	17.39639	646.50049	-21.88099	611.64923	-990.40961	
5259	52.580	-715.92755	-9.84779	-577.29333	698.36255	-0.21686	-492.40424	-787.93945	10.18368	641.17218	781.53540	17.21899	646.52411	-21.81971	611.83234	-990.20313	
5260	52.590	-715.93939	-9.81129	-577.27545	698.38135	-0.19946	-492.31607	-787.98315	10.04872	641.14667	781.37000	17.03324	646.52484	-21.85672	611.97742	-989.98840	
5261	52.600	-715.92120	-9.66455	-577.29535	698.21661	-0.38103	-492.57791	-787.96588	10.08284	641.19995	781.31262	16.92282	646.51385	-22.04524	612.19446	-989.76660	
5262	52.610	-715.93127	-9.55163	-577.32501	698.53577	0.13007	-492.32022	-787.95764	10.05818	641.27435	781.21960	16.80363	646.55194	-22.04656	612.41718	-989.56757	
5263	52.620	-715.91406	-9.47772	-577.31158	698.55884	0.22334	-492.28598	-787.96454	10.00869	641.26636	781.40619	16.82405	646.59003	-21.92527	612.56683	-989.46948	
5264	52.630	-716.17328	-9.06675	-577.19977	698.57520	0.32793	-492.28735	-787.93848	9.93147	641.29535	781.38037	16.68804	646.60400	-21.89651	612.66132	-989.35992	
5265	52.640	-716.02258	-9.28243	-577.04669	698.63074	0.35075	-492.18198	-787.90698	9.89551	641.32593	781.45673	16.56088	646.59918	-21.80402	612.81464	-989.28552	
5266	52.650	-716.06500	-9.17249	-577.07251	698.64392	0.40685	-492.20770	-787.86407	9.71660	641.31964	781.40521	16.42027	646.56409	-21.83557	613.05890	-989.28607	
5267	52.660	-716.08447	-9.06810	-577.02155	698.65723	0.45027	-492.24808	-787.84863	9.68620	641.33527	781.40704	16.33688	646.59979	-21.83113	613.17725	-989.26532	
5268	52.670	-716.12756	-8.98258	-577.03082	698.64380	0.54888	-492.17630	-787.86652	9.71740	641.37531	781.42493	16.49738	646.69415	-21.78476	613.21570	-989.20996	
5269	52.680	-715.98163	-8.95179	-577.16864	698.68134	0.50540	-492.14337	-787.82104	9.56848	641.38898	781.49994	16.25592	646.65082	-21.82277	613.26849	-989.17218	
5270	52.690	-716.17834	-8.73312	-576.95197	698.62598	0.57485	-492.17377	-787.81946	9.36265	641.47345	781.46423	16.22155	646.65558	-21.84718	613.36615	-988.99811	
5271	52.700	-716.16669	-8.67799	-576.90485	698.82599	0.56692	-492.06177	-787.76605	9.14824	641.50726	781.55688	15.97794	646.61243	-21.72532	613.44318	-988.79254	
5272	52.710	-716.15851	-8.64439	-576.90381	698.83228	0.62888	-492.02460	-787.92316	9.02938	641.42596	781.45520	15.84882	646.68134	-21.87641	613.69153	-988.66235	
5273	52.720	-716.12061	-8.61107	-576.86536	698.82739	0.67897	-491.96317	-787.87616	9.02731	641.41772	781.58044	15.96521	646.72064	-21.76665	613.90125	-988.33679	
5274	52.730	-716.10577	-8.49108	-576.77405	698.88269	0.70907	-491.85349	-787.68170	9.13926	641.60809	781.59760	15.98282	646.72656	-21.74762	613.96204	-988.31921	
